<svg width="500" height="55" viewBox="0 0 500 55" fill="none" xmlns="http://www.w3.org/2000/svg">
<mask id="mask0_1380_19" style="mask-type:luminance" maskUnits="userSpaceOnUse" x="0" y="0" width="500" height="54">
<path d="M500 0.50415H0V53.2677H500V0.50415Z" fill="white"/>
</mask>
<g mask="url(#mask0_1380_19)">
<path d="M68.8008 51.8691V1.65869H104.799V8.46549H76.6663V22.1509H102.753V28.9578H76.6663V44.9903H106.006V51.8691H68.8008Z" fill="#004A61"/>
<path d="M68.8008 51.8691V1.65869H104.799V8.46549H76.6663V22.1509H102.753V28.9578H76.6663V44.9903H106.006V51.8691H68.8008Z" stroke="#004A61" stroke-width="0.362518" stroke-miterlimit="10"/>
<path d="M135.02 51.8688V28.9576C135.02 22.2275 132.447 20.1103 127.384 20.1103C119.821 20.1103 117.253 24.8717 117.253 32.5886V51.8736H109.689V14.6639H116.946V22.0742C119.14 16.326 123.902 13.6819 129.952 13.6819C137.285 13.6819 142.578 17.6146 142.578 26.5386V51.8736H135.015L135.02 51.8688Z" fill="#004A61"/>
<path d="M135.02 51.8688V28.9576C135.02 22.2275 132.447 20.1103 127.384 20.1103C119.821 20.1103 117.253 24.8717 117.253 32.5886V51.8736H109.689V14.6639H116.946V22.0742C119.14 16.326 123.902 13.6819 129.952 13.6819C137.285 13.6819 142.578 17.6146 142.578 26.5386V51.8736H135.015L135.02 51.8688Z" stroke="#004A61" stroke-width="0.362518" stroke-miterlimit="10"/>
<path d="M171.089 25.9349C170.634 21.4706 168.369 19.43 162.395 19.43C157.557 19.43 154.755 20.7904 154.755 24.0429C154.755 26.3134 156.115 27.5204 159.066 28.4307C162.242 29.4127 167.837 30.1694 172.301 31.7597C176.234 33.1969 179.41 35.3907 179.41 40.9089C179.41 48.1709 174.04 52.8557 163.607 52.8557C153.174 52.8557 146.214 47.7877 146.061 39.9269H153.85C154.003 44.6884 157.706 47.1074 163.531 47.1074C169.355 47.1074 172.076 44.6117 172.076 41.7377C172.076 39.6969 170.716 38.5617 168.977 37.7282C165.576 36.0662 160.963 35.6112 156.954 34.4757C149.088 32.2102 147.426 28.3492 147.426 24.4931C147.426 18.0648 152.039 13.677 162.702 13.677C173.365 13.677 177.978 18.2899 178.356 25.9302H171.094L171.089 25.9349Z" fill="#004A61"/>
<path d="M171.089 25.9349C170.634 21.4706 168.369 19.43 162.395 19.43C157.557 19.43 154.755 20.7904 154.755 24.0429C154.755 26.3134 156.115 27.5204 159.066 28.4307C162.242 29.4127 167.837 30.1694 172.301 31.7597C176.234 33.1969 179.41 35.3907 179.41 40.9089C179.41 48.1709 174.04 52.8557 163.607 52.8557C153.174 52.8557 146.214 47.7877 146.061 39.9269H153.85C154.003 44.6884 157.706 47.1074 163.531 47.1074C169.355 47.1074 172.076 44.6117 172.076 41.7377C172.076 39.6969 170.716 38.5617 168.977 37.7282C165.576 36.0662 160.963 35.6112 156.954 34.4757C149.088 32.2102 147.426 28.3492 147.426 24.4931C147.426 18.0648 152.039 13.677 162.702 13.677C173.365 13.677 177.978 18.2899 178.356 25.9302H171.094L171.089 25.9349Z" stroke="#004A61" stroke-width="0.362518" stroke-miterlimit="10"/>
<path d="M211.317 33.2688C211.317 24.7998 207.538 20.1103 200.506 20.1103C193.474 20.1103 189.618 24.7998 189.618 33.2688C189.618 41.7378 193.474 46.5038 200.506 46.5038C207.538 46.5038 211.317 41.8143 211.317 33.2688ZM181.825 33.2688C181.825 21.4707 189.01 13.6819 200.501 13.6819C211.993 13.6819 218.953 21.394 218.953 33.1921C218.953 44.9903 211.844 52.8508 200.425 52.8508C189.005 52.8508 181.82 44.7603 181.82 33.2641" fill="#004A61"/>
<path d="M211.317 33.2688C211.317 24.7998 207.538 20.1103 200.506 20.1103C193.474 20.1103 189.618 24.7998 189.618 33.2688C189.618 41.7378 193.474 46.5038 200.506 46.5038C207.538 46.5038 211.317 41.8143 211.317 33.2688ZM181.825 33.2688C181.825 21.4707 189.01 13.6819 200.501 13.6819C211.993 13.6819 218.953 21.394 218.953 33.1921C218.953 44.9903 211.844 52.8508 200.425 52.8508C189.005 52.8508 181.82 44.7603 181.82 33.2641L181.825 33.2688Z" stroke="#004A61" stroke-width="0.362518" stroke-miterlimit="10"/>
<path d="M222.885 51.8689V14.6638H229.994V21.3173C232.945 14.9655 237.706 13.677 242.242 13.677H243.904V21.4658C243.071 21.3173 242.166 21.2406 241.184 21.2406C233.922 21.2406 230.444 25.9302 230.444 32.7369V51.8689H222.88H222.885Z" fill="#004A61"/>
<path d="M222.885 51.8689V14.6638H229.994V21.3173C232.945 14.9655 237.706 13.677 242.242 13.677H243.904V21.4658C243.071 21.3173 242.166 21.2406 241.184 21.2406C233.922 21.2406 230.444 25.9302 230.444 32.7369V51.8689H222.88H222.885Z" stroke="#004A61" stroke-width="0.362518" stroke-miterlimit="10"/>
<path d="M269.345 32.6652C268.21 33.9489 265.035 34.2507 261.025 34.8589C255.05 35.8409 251.875 37.1247 251.875 41.7377C251.875 45.4404 253.993 47.4092 258.303 47.4092C264.58 47.4092 269.043 43.3232 269.268 38.0302L269.345 32.6604V32.6652ZM269.873 51.8689C269.648 51.1887 269.493 47.7109 269.418 46.8009C267.448 50.1299 263.29 52.8507 256.488 52.8507C248.168 52.8507 244.312 48.8414 244.312 41.9627C244.312 32.2102 252.025 30.9982 260.948 29.7862C266.318 29.0294 268.89 28.6509 269.193 25.9302C269.193 21.9208 266.543 19.5785 261.1 19.5785C255.28 19.5785 252.935 22.3759 252.555 26.7589H245.524C245.672 19.0468 249.758 13.677 261.403 13.677C273.048 13.677 276.905 18.9701 276.905 28.3492V51.8689H269.873Z" fill="#004A61"/>
<path d="M269.345 32.6652C268.21 33.9489 265.035 34.2507 261.025 34.8589C255.05 35.8409 251.875 37.1247 251.875 41.7377C251.875 45.4404 253.993 47.4092 258.303 47.4092C264.58 47.4092 269.043 43.3232 269.268 38.0302L269.345 32.6604V32.6652ZM269.873 51.8689C269.648 51.1887 269.493 47.7109 269.418 46.8009C267.448 50.1299 263.29 52.8507 256.488 52.8507C248.168 52.8507 244.312 48.8414 244.312 41.9627C244.312 32.2102 252.025 30.9982 260.948 29.7862C266.318 29.0294 268.89 28.6509 269.193 25.9302C269.193 21.9208 266.543 19.5785 261.1 19.5785C255.28 19.5785 252.935 22.3759 252.555 26.7589H245.524C245.672 19.0468 249.758 13.677 261.403 13.677C273.048 13.677 276.905 18.9701 276.905 28.3492V51.8689H269.873Z" stroke="#004A61" stroke-width="0.362518" stroke-miterlimit="10"/>
<path d="M331.335 51.8691V28.3541H307.893V51.8691H299.8V1.65869H307.893V21.5474H331.335V1.65869H339.503V51.8691H331.335Z" fill="#004A61"/>
<path d="M331.335 51.8691V28.3541H307.893V51.8691H299.8V1.65869H307.893V21.5474H331.335V1.65869H339.503V51.8691H331.335Z" stroke="#004A61" stroke-width="0.362518" stroke-miterlimit="10"/>
<path d="M370.303 30.3179C370.15 23.5112 366.145 19.7317 360.85 19.7317C355.558 19.7317 351.548 23.7411 351.248 30.3179H370.303ZM351.023 35.1559C351.323 42.5664 355.103 46.8774 361.08 46.8774C365.393 46.8774 368.718 44.6837 369.703 40.9042H377.568C375.298 48.4677 369.933 52.8507 361.085 52.8507C349.518 52.8507 343.468 45.4404 343.468 33.2639C343.468 21.0874 349.895 13.677 360.86 13.677C371.825 13.677 378.1 21.3173 378.1 35.1512H351.028L351.023 35.1559Z" fill="#004A61"/>
<path d="M370.303 30.3179C370.15 23.5112 366.145 19.7317 360.85 19.7317C355.558 19.7317 351.548 23.7411 351.248 30.3179H370.303ZM351.023 35.1559C351.323 42.5664 355.103 46.8774 361.08 46.8774C365.393 46.8774 368.718 44.6837 369.703 40.9042H377.568C375.298 48.4677 369.933 52.8507 361.085 52.8507C349.518 52.8507 343.468 45.4404 343.468 33.2639C343.468 21.0874 349.895 13.677 360.86 13.677C371.825 13.677 378.1 21.3173 378.1 35.1512H351.028L351.023 35.1559Z" stroke="#004A61" stroke-width="0.362518" stroke-miterlimit="10"/>
<path d="M405.922 32.6652C404.785 33.9489 401.61 34.2507 397.6 34.8589C391.627 35.8409 388.452 37.1247 388.452 41.7377C388.452 45.4404 390.57 47.4092 394.88 47.4092C401.155 47.4092 405.62 43.3232 405.845 38.0302L405.922 32.6604V32.6652ZM406.447 51.8689C406.222 51.1887 406.07 47.7109 405.992 46.8009C404.025 50.1299 399.867 52.8507 393.065 52.8507C384.745 52.8507 380.887 48.8414 380.887 41.9627C380.887 32.2102 388.6 30.9982 397.525 29.7862C402.895 29.0294 405.462 28.6509 405.767 25.9302C405.767 21.9208 403.125 19.5785 397.677 19.5785C391.852 19.5785 389.51 22.3759 389.132 26.7589H382.1C382.252 19.0468 386.335 13.677 397.98 13.677C409.625 13.677 413.48 18.9701 413.48 28.3492V51.8689H406.447Z" fill="#004A61"/>
<path d="M405.922 32.6652C404.785 33.9489 401.61 34.2507 397.6 34.8589C391.627 35.8409 388.452 37.1247 388.452 41.7377C388.452 45.4404 390.57 47.4092 394.88 47.4092C401.155 47.4092 405.62 43.3232 405.845 38.0302L405.922 32.6604V32.6652ZM406.447 51.8689C406.222 51.1887 406.07 47.7109 405.992 46.8009C404.025 50.1299 399.867 52.8507 393.065 52.8507C384.745 52.8507 380.887 48.8414 380.887 41.9627C380.887 32.2102 388.6 30.9982 397.525 29.7862C402.895 29.0294 405.462 28.6509 405.767 25.9302C405.767 21.9208 403.125 19.5785 397.677 19.5785C391.852 19.5785 389.51 22.3759 389.132 26.7589H382.1C382.252 19.0468 386.335 13.677 397.98 13.677C409.625 13.677 413.48 18.9701 413.48 28.3492V51.8689H406.447Z" stroke="#004A61" stroke-width="0.362518" stroke-miterlimit="10"/>
<path d="M426.768 1.05493H419.205V51.8734H426.768V1.05493Z" fill="#004A61"/>
<path d="M426.768 1.05493H419.205V51.8734H426.768V1.05493Z" stroke="#004A61" stroke-width="0.362518" stroke-miterlimit="10"/>
<path d="M455.275 27.3673H462.307V37.9535C462.307 45.819 457.917 52.851 447.64 52.851C437.36 52.851 432.817 45.8955 432.817 37.877V4.60938H440.305V14.6687H462.31V20.1151H440.305V37.2062C440.305 42.576 442.5 46.2838 447.792 46.2838C453.085 46.2838 455.28 42.6528 455.28 37.283V27.377L455.275 27.3673Z" fill="#004A61"/>
<path d="M455.275 27.3673H462.307V37.9535C462.307 45.819 457.917 52.851 447.64 52.851C437.36 52.851 432.817 45.8955 432.817 37.877V4.60938H440.305V14.6687H462.31V20.1151H440.305V37.2062C440.305 42.576 442.5 46.2838 447.792 46.2838C453.085 46.2838 455.28 42.6528 455.28 37.283V27.377L455.275 27.3673Z" stroke="#004A61" stroke-width="0.362518" stroke-miterlimit="10"/>
<path d="M491.947 51.8687V28.5792C491.947 22.0022 489.297 19.7317 484.537 19.7317C476.595 19.7317 474.33 26.0834 474.33 32.5884V51.8734H466.765V1.05493H474.33V21.6238C475.915 16.6325 480.757 13.6817 486.88 13.6817C494.065 13.6817 499.582 17.763 499.582 26.1602V51.8687H491.947Z" fill="#004A61"/>
<path d="M491.947 51.8687V28.5792C491.947 22.0022 489.297 19.7317 484.537 19.7317C476.595 19.7317 474.33 26.0834 474.33 32.5884V51.8734H466.765V1.05493H474.33V21.6238C475.915 16.6325 480.757 13.6817 486.88 13.6817C494.065 13.6817 499.582 17.7629 499.582 26.1602V51.8687H491.947Z" stroke="#004A61" stroke-width="0.362518" stroke-miterlimit="10"/>
<path d="M52.73 22.2131V51.7828H37.799V15.435H0V0.50415H31.021C42.9915 0.50415 52.73 10.2425 52.73 22.2131Z" fill="#CD1582"/>
<path d="M32.7262 42.212V51.7828H17.7906V35.4388H0V20.5078H11.0221C22.9927 20.5078 32.731 30.2463 32.731 42.2168" fill="#CD1582"/>
<path d="M12.3252 52.2089H0.0336914V40.7222H1.98328C7.69314 40.7222 12.3252 45.3542 12.3252 51.0639V52.2089Z" fill="#CD1582"/>
</g>
</svg>
